<svg width="900" height="900" viewBox="0 0 900 900" fill="none" xmlns="http://www.w3.org/2000/svg">
<circle cx="450" cy="450" r="450" fill="white"/>
<path d="M486.473 245.769V385.769H446.873V331.169H392.873V385.769H353.273V245.769H392.873V298.369H446.873V245.769H486.473Z" fill="#3A86FF"/>
<path d="M570.606 358.569C575.806 358.569 580.273 357.835 584.006 356.369C587.873 354.902 591.74 352.502 595.606 349.169L615.406 369.969C605.14 381.702 589.806 387.569 569.406 387.569C556.74 387.569 545.606 385.169 536.006 380.369C526.406 375.569 518.94 368.902 513.606 360.369C508.406 351.835 505.806 342.169 505.806 331.369C505.806 320.702 508.406 311.169 513.606 302.769C518.806 294.235 525.94 287.569 535.006 282.769C544.206 277.969 554.473 275.569 565.806 275.569C576.34 275.569 585.94 277.769 594.606 282.169C603.406 286.435 610.406 292.769 615.606 301.169C620.806 309.435 623.406 319.302 623.406 330.769L546.006 345.569C550.14 354.235 558.34 358.569 570.606 358.569ZM566.006 302.569C559.473 302.569 554.14 304.635 550.006 308.769C545.873 312.769 543.54 318.569 543.006 326.169L587.006 317.569C585.673 313.035 583.14 309.435 579.406 306.769C575.673 303.969 571.206 302.569 566.006 302.569Z" fill="#8338EC"/>
<path d="M383.931 519.569C393.798 519.569 402.731 521.835 410.731 526.369C418.865 530.902 425.265 537.435 429.931 545.969C434.731 554.369 437.131 564.169 437.131 575.369C437.131 586.569 434.731 596.435 429.931 604.969C425.265 613.502 418.865 620.102 410.731 624.769C402.731 629.302 393.798 631.569 383.931 631.569C369.665 631.569 358.998 627.369 351.931 618.969V629.769H315.731V481.369H353.731V530.769C361.065 523.302 371.131 519.569 383.931 519.569ZM375.931 601.369C382.598 601.369 388.065 599.102 392.331 594.569C396.598 589.902 398.731 583.502 398.731 575.369C398.731 567.369 396.598 561.102 392.331 556.569C388.065 552.035 382.598 549.769 375.931 549.769C369.265 549.769 363.798 552.035 359.531 556.569C355.265 561.102 353.131 567.369 353.131 575.369C353.131 583.502 355.265 589.902 359.531 594.569C363.798 599.102 369.265 601.369 375.931 601.369Z" fill="#FF006E"/>
<path d="M490.994 534.369C494.86 529.435 499.86 525.769 505.994 523.369C512.26 520.835 519.394 519.569 527.394 519.569V553.769C523.927 553.369 521.06 553.169 518.794 553.169C510.66 553.169 504.26 555.369 499.594 559.769C495.06 564.169 492.794 570.902 492.794 579.969V629.769H454.794V521.369H490.994V534.369Z" fill="#FB5607"/>
<path d="M597.866 631.569C586.266 631.569 575.799 629.169 566.466 624.369C557.132 619.569 549.799 612.902 544.466 604.369C539.266 595.835 536.666 586.169 536.666 575.369C536.666 564.702 539.266 555.102 544.466 546.569C549.799 538.035 557.066 531.435 566.266 526.769C575.599 521.969 586.132 519.569 597.866 519.569C609.599 519.569 620.132 521.969 629.466 526.769C638.799 531.435 646.066 538.035 651.266 546.569C656.466 554.969 659.066 564.569 659.066 575.369C659.066 586.169 656.466 595.835 651.266 604.369C646.066 612.902 638.799 619.569 629.466 624.369C620.132 629.169 609.599 631.569 597.866 631.569ZM597.866 601.369C604.532 601.369 609.999 599.102 614.266 594.569C618.532 589.902 620.666 583.502 620.666 575.369C620.666 567.369 618.532 561.102 614.266 556.569C609.999 552.035 604.532 549.769 597.866 549.769C591.199 549.769 585.732 552.035 581.466 556.569C577.199 561.102 575.066 567.369 575.066 575.369C575.066 583.502 577.199 589.902 581.466 594.569C585.732 599.102 591.199 601.369 597.866 601.369Z" fill="#FFBE0B"/>
<g filter="url(#filter0_i_168_3)">
<path d="M463.133 107.571C544.288 108.007 617.18 125.701 669.614 175.465C722.022 225.203 754.468 307.436 753.722 438.026C752.976 568.615 719.593 650.495 666.62 699.667C613.621 748.865 540.531 765.774 459.376 765.339C418.934 765.121 363.609 756.537 307.555 740.681C251.501 724.825 194.917 701.752 151.885 672.671C108.763 643.53 79.7921 608.739 77.7617 569.574C75.7353 530.487 100.498 485.861 167.758 436.891C235.453 387.605 277.784 342.169 305.726 301.705C333.673 261.232 347.158 225.824 357.239 196.744C358.339 193.571 359.396 190.482 360.425 187.474C364.122 176.664 367.458 166.912 371.126 158.171C375.801 147.029 380.935 137.743 387.84 130.287C401.518 115.517 422.705 107.353 463.133 107.571Z" stroke="#010101" stroke-width="5"/>
</g>
<defs>
<filter id="filter0_i_168_3" x="75.1475" y="105.066" width="681.087" height="666.78" filterUnits="userSpaceOnUse" color-interpolation-filters="sRGB">
<feFlood flood-opacity="0" result="BackgroundImageFix"/>
<feBlend mode="normal" in="SourceGraphic" in2="BackgroundImageFix" result="shape"/>
<feColorMatrix in="SourceAlpha" type="matrix" values="0 0 0 0 0 0 0 0 0 0 0 0 0 0 0 0 0 0 127 0" result="hardAlpha"/>
<feOffset dy="4"/>
<feGaussianBlur stdDeviation="2"/>
<feComposite in2="hardAlpha" operator="arithmetic" k2="-1" k3="1"/>
<feColorMatrix type="matrix" values="0 0 0 0 0 0 0 0 0 0 0 0 0 0 0 0 0 0 0.25 0"/>
<feBlend mode="normal" in2="shape" result="effect1_innerShadow_168_3"/>
</filter>
</defs>
</svg>
