<svg width="1186" height="1030" viewBox="0 0 1186 1030" fill="none" xmlns="http://www.w3.org/2000/svg">
<rect width="1186" height="1030" fill="#FFFEFE"/>
<path d="M621.473 311V451H581.873V396.4H527.873V451H488.273V311H527.873V363.6H581.873V311H621.473Z" fill="#3A86FF"/>
<path d="M705.606 423.8C710.806 423.8 715.273 423.067 719.006 421.6C722.873 420.133 726.74 417.733 730.606 414.4L750.406 435.2C740.14 446.933 724.806 452.8 704.406 452.8C691.74 452.8 680.606 450.4 671.006 445.6C661.406 440.8 653.94 434.133 648.606 425.6C643.406 417.067 640.806 407.4 640.806 396.6C640.806 385.933 643.406 376.4 648.606 368C653.806 359.467 660.94 352.8 670.006 348C679.206 343.2 689.473 340.8 700.806 340.8C711.34 340.8 720.94 343 729.606 347.4C738.406 351.667 745.406 358 750.606 366.4C755.806 374.667 758.406 384.533 758.406 396L681.006 410.8C685.14 419.467 693.34 423.8 705.606 423.8ZM701.006 367.8C694.473 367.8 689.14 369.867 685.006 374C680.873 378 678.54 383.8 678.006 391.4L722.006 382.8C720.673 378.267 718.14 374.667 714.406 372C710.673 369.2 706.206 367.8 701.006 367.8Z" fill="#8338EC"/>
<path d="M518.931 584.8C528.798 584.8 537.731 587.067 545.731 591.6C553.865 596.133 560.265 602.667 564.931 611.2C569.731 619.6 572.131 629.4 572.131 640.6C572.131 651.8 569.731 661.667 564.931 670.2C560.265 678.733 553.865 685.333 545.731 690C537.731 694.533 528.798 696.8 518.931 696.8C504.665 696.8 493.998 692.6 486.931 684.2V695H450.731V546.6H488.731V596C496.065 588.533 506.131 584.8 518.931 584.8ZM510.931 666.6C517.598 666.6 523.065 664.333 527.331 659.8C531.598 655.133 533.731 648.733 533.731 640.6C533.731 632.6 531.598 626.333 527.331 621.8C523.065 617.267 517.598 615 510.931 615C504.265 615 498.798 617.267 494.531 621.8C490.265 626.333 488.131 632.6 488.131 640.6C488.131 648.733 490.265 655.133 494.531 659.8C498.798 664.333 504.265 666.6 510.931 666.6Z" fill="#FF006E"/>
<path d="M625.994 599.6C629.86 594.667 634.86 591 640.994 588.6C647.26 586.067 654.394 584.8 662.394 584.8V619C658.927 618.6 656.06 618.4 653.794 618.4C645.66 618.4 639.26 620.6 634.594 625C630.06 629.4 627.794 636.133 627.794 645.2V695H589.794V586.6H625.994V599.6Z" fill="#FB5607"/>
<path d="M732.866 696.8C721.266 696.8 710.799 694.4 701.466 689.6C692.132 684.8 684.799 678.133 679.466 669.6C674.266 661.067 671.666 651.4 671.666 640.6C671.666 629.933 674.266 620.333 679.466 611.8C684.799 603.267 692.066 596.667 701.266 592C710.599 587.2 721.132 584.8 732.866 584.8C744.599 584.8 755.132 587.2 764.466 592C773.799 596.667 781.066 603.267 786.266 611.8C791.466 620.2 794.066 629.8 794.066 640.6C794.066 651.4 791.466 661.067 786.266 669.6C781.066 678.133 773.799 684.8 764.466 689.6C755.132 694.4 744.599 696.8 732.866 696.8ZM732.866 666.6C739.532 666.6 744.999 664.333 749.266 659.8C753.532 655.133 755.666 648.733 755.666 640.6C755.666 632.6 753.532 626.333 749.266 621.8C744.999 617.267 739.532 615 732.866 615C726.199 615 720.732 617.267 716.466 621.8C712.199 626.333 710.066 632.6 710.066 640.6C710.066 648.733 712.199 655.133 716.466 659.8C720.732 664.333 726.199 666.6 732.866 666.6Z" fill="#FFBE0B"/>
<g filter="url(#filter0_i_154_2)">
<path d="M598.019 172.866C679.173 173.316 752.069 191.022 804.511 240.795C856.927 290.542 889.388 372.781 888.665 503.37C887.941 633.96 854.572 715.834 801.608 764.998C748.617 814.187 675.53 831.084 594.376 830.635C553.933 830.411 498.606 821.817 442.551 805.952C386.493 790.086 329.906 767.004 286.869 737.916C243.742 708.767 214.765 673.972 212.728 634.806C210.695 595.719 235.449 551.097 302.701 502.138C370.387 452.862 412.711 407.434 440.646 366.974C468.586 326.506 482.065 291.1 492.141 262.022C493.24 258.849 494.296 255.76 495.325 252.752C499.02 241.943 502.354 232.192 506.021 223.452C510.694 212.31 515.826 203.025 522.73 195.57C536.405 180.803 557.591 172.642 598.019 172.866Z" stroke="#010101" stroke-width="5"/>
</g>
<defs>
<filter id="filter0_i_154_2" x="210.113" y="170.362" width="681.064" height="666.782" filterUnits="userSpaceOnUse" color-interpolation-filters="sRGB">
<feFlood flood-opacity="0" result="BackgroundImageFix"/>
<feBlend mode="normal" in="SourceGraphic" in2="BackgroundImageFix" result="shape"/>
<feColorMatrix in="SourceAlpha" type="matrix" values="0 0 0 0 0 0 0 0 0 0 0 0 0 0 0 0 0 0 127 0" result="hardAlpha"/>
<feOffset dy="4"/>
<feGaussianBlur stdDeviation="2"/>
<feComposite in2="hardAlpha" operator="arithmetic" k2="-1" k3="1"/>
<feColorMatrix type="matrix" values="0 0 0 0 0 0 0 0 0 0 0 0 0 0 0 0 0 0 0.25 0"/>
<feBlend mode="normal" in2="shape" result="effect1_innerShadow_154_2"/>
</filter>
</defs>
</svg>
