<svg width="900" height="900" viewBox="0 0 900 900" fill="none" xmlns="http://www.w3.org/2000/svg">
<circle cx="450" cy="450" r="450" fill="black"/>
<g filter="url(#filter0_i_168_4)">
<path d="M463.147 105.071C626.053 105.946 757.718 176.087 756.222 438.039C754.726 699.991 622.268 768.714 459.362 767.839C296.456 766.964 -103.713 631.448 166.287 434.87C436.287 238.293 300.241 104.196 463.147 105.071Z" fill="black"/>
</g>
<path d="M463.13 108.071C544.225 108.507 616.967 126.188 669.27 175.828C721.54 225.436 753.968 307.511 753.222 438.023C752.477 568.535 719.114 650.257 666.28 699.301C613.414 748.375 540.474 765.274 459.379 764.839C418.993 764.622 363.714 756.048 307.692 740.2C251.667 724.352 195.138 701.298 152.165 672.257C109.084 643.144 80.279 608.474 78.261 569.548C76.2478 530.717 100.84 486.23 168.052 437.295C235.786 387.981 278.16 342.506 306.137 301.989C334.122 261.462 347.625 226.005 357.712 196.908C358.814 193.729 359.872 190.636 360.901 187.626C364.598 176.819 367.926 167.089 371.587 158.365C376.252 147.248 381.358 138.022 388.206 130.627C401.746 116.007 422.761 107.854 463.13 108.071Z" stroke="white" stroke-width="6"/>
<path d="M486.473 245.769V385.769H446.873V331.169H392.873V385.769H353.273V245.769H392.873V298.369H446.873V245.769H486.473ZM570.606 358.569C575.806 358.569 580.273 357.835 584.006 356.369C587.873 354.902 591.74 352.502 595.606 349.169L615.406 369.969C605.14 381.702 589.806 387.569 569.406 387.569C556.74 387.569 545.606 385.169 536.006 380.369C526.406 375.569 518.94 368.902 513.606 360.369C508.406 351.835 505.806 342.169 505.806 331.369C505.806 320.702 508.406 311.169 513.606 302.769C518.806 294.235 525.94 287.569 535.006 282.769C544.206 277.969 554.473 275.569 565.806 275.569C576.34 275.569 585.94 277.769 594.606 282.169C603.406 286.435 610.406 292.769 615.606 301.169C620.806 309.435 623.406 319.302 623.406 330.769L546.006 345.569C550.14 354.235 558.34 358.569 570.606 358.569ZM566.006 302.569C559.473 302.569 554.14 304.635 550.006 308.769C545.873 312.769 543.54 318.569 543.006 326.169L587.006 317.569C585.673 313.035 583.14 309.435 579.406 306.769C575.673 303.969 571.206 302.569 566.006 302.569ZM384.615 519.569C394.482 519.569 403.415 521.835 411.415 526.369C419.548 530.902 425.948 537.435 430.615 545.969C435.415 554.369 437.815 564.169 437.815 575.369C437.815 586.569 435.415 596.435 430.615 604.969C425.948 613.502 419.548 620.102 411.415 624.769C403.415 629.302 394.482 631.569 384.615 631.569C370.348 631.569 359.682 627.369 352.615 618.969V629.769H316.415V481.369H354.415V530.769C361.748 523.302 371.815 519.569 384.615 519.569ZM376.615 601.369C383.282 601.369 388.748 599.102 393.015 594.569C397.282 589.902 399.415 583.502 399.415 575.369C399.415 567.369 397.282 561.102 393.015 556.569C388.748 552.035 383.282 549.769 376.615 549.769C369.948 549.769 364.482 552.035 360.215 556.569C355.948 561.102 353.815 567.369 353.815 575.369C353.815 583.502 355.948 589.902 360.215 594.569C364.482 599.102 369.948 601.369 376.615 601.369ZM491.677 534.369C495.544 529.435 500.544 525.769 506.677 523.369C512.944 520.835 520.077 519.569 528.077 519.569V553.769C524.611 553.369 521.744 553.169 519.477 553.169C511.344 553.169 504.944 555.369 500.277 559.769C495.744 564.169 493.477 570.902 493.477 579.969V629.769H455.477V521.369H491.677V534.369ZM597.182 631.569C585.582 631.569 575.115 629.169 565.782 624.369C556.449 619.569 549.115 612.902 543.782 604.369C538.582 595.835 535.982 586.169 535.982 575.369C535.982 564.702 538.582 555.102 543.782 546.569C549.115 538.035 556.382 531.435 565.582 526.769C574.915 521.969 585.449 519.569 597.182 519.569C608.915 519.569 619.449 521.969 628.782 526.769C638.115 531.435 645.382 538.035 650.582 546.569C655.782 554.969 658.382 564.569 658.382 575.369C658.382 586.169 655.782 595.835 650.582 604.369C645.382 612.902 638.115 619.569 628.782 624.369C619.449 629.169 608.915 631.569 597.182 631.569ZM597.182 601.369C603.849 601.369 609.315 599.102 613.582 594.569C617.849 589.902 619.982 583.502 619.982 575.369C619.982 567.369 617.849 561.102 613.582 556.569C609.315 552.035 603.849 549.769 597.182 549.769C590.515 549.769 585.049 552.035 580.782 556.569C576.515 561.102 574.382 567.369 574.382 575.369C574.382 583.502 576.515 589.902 580.782 594.569C585.049 599.102 590.515 601.369 597.182 601.369Z" fill="white"/>
<defs>
<filter id="filter0_i_168_4" x="75.1475" y="105.067" width="681.087" height="666.78" filterUnits="userSpaceOnUse" color-interpolation-filters="sRGB">
<feFlood flood-opacity="0" result="BackgroundImageFix"/>
<feBlend mode="normal" in="SourceGraphic" in2="BackgroundImageFix" result="shape"/>
<feColorMatrix in="SourceAlpha" type="matrix" values="0 0 0 0 0 0 0 0 0 0 0 0 0 0 0 0 0 0 127 0" result="hardAlpha"/>
<feOffset dy="4"/>
<feGaussianBlur stdDeviation="2"/>
<feComposite in2="hardAlpha" operator="arithmetic" k2="-1" k3="1"/>
<feColorMatrix type="matrix" values="0 0 0 0 0 0 0 0 0 0 0 0 0 0 0 0 0 0 0.25 0"/>
<feBlend mode="normal" in2="shape" result="effect1_innerShadow_168_4"/>
</filter>
</defs>
</svg>
