<svg width="1125" height="2496" viewBox="0 0 1125 2496" fill="none" xmlns="http://www.w3.org/2000/svg">
<path d="M0 60H1125V2496H0V60Z" fill="white"/>
<g filter="url(#filter0_d_9_27)">
<path d="M765 1602L415.5 1017L240 724.5L307.5 723L634.5 1267.5L829.5 1602H765ZM237 1602V1326C237 1269 245.5 1218.5 262.5 1174.5C279.5 1130.5 303 1093 333 1062C364 1030 399.5 1003.5 439.5 982.5L457.5 1029C425.5 1047 397.5 1070 373.5 1098C349.5 1125 330.5 1158 316.5 1197C302.5 1235 295.5 1280.5 295.5 1333.5V1602H237ZM622.5 1305L603 1257C636 1237 664.5 1213.5 688.5 1186.5C713.5 1158.5 732.5 1125.5 745.5 1087.5C759.5 1049.5 766.5 1006 766.5 957V723H823.5V963C823.5 1020 815 1070 798 1113C781 1156 757 1193 726 1224C696 1255 661.5 1282 622.5 1305Z" fill="black" fill-opacity="0.4" shape-rendering="crispEdges"/>
</g>
<path d="M403.69 1946L443.153 1818.03H470.926L509.686 1946H486.131L459.237 1852.84C458.534 1850.43 457.948 1848.35 457.479 1846.6C457.069 1844.78 456.629 1843.08 456.161 1841.5H455.897C455.487 1843.08 455.018 1844.75 454.491 1846.51C454.022 1848.27 453.465 1850.35 452.821 1852.75L426.893 1946H403.69ZM424.08 1916.91L427.596 1900.56H485.077L488.856 1916.91H424.08ZM520.405 1946V1818.03H543.872V1946H520.405ZM559.513 1906.98V1904.16C559.513 1891.8 563.263 1881.93 570.763 1874.54C578.263 1867.16 588.312 1863.47 600.909 1863.47C613.273 1863.47 622.765 1866.99 629.386 1874.02C636.066 1881.05 639.405 1890.78 639.405 1903.2V1909.79H571.73V1897.22H616.818V1896.69C616.818 1892.18 615.558 1888.29 613.038 1885C610.519 1881.66 606.388 1879.99 600.646 1879.99C594.728 1879.99 590.245 1882.1 587.198 1886.32C584.152 1890.54 582.628 1895.76 582.628 1901.97V1907.15C582.628 1914.71 584.269 1920.63 587.55 1924.91C590.831 1929.18 595.548 1931.32 601.7 1931.32C606.095 1931.32 609.757 1930.44 612.687 1928.69C615.675 1926.93 617.989 1924.58 619.63 1921.65L638.79 1927.81C636.329 1933.84 632.111 1938.71 626.134 1942.4C620.216 1946.09 612.13 1947.93 601.876 1947.93C588.4 1947.93 577.97 1944.27 570.587 1936.95C563.204 1929.62 559.513 1919.63 559.513 1906.98ZM659.793 1946V1849.94C659.793 1838.86 662.839 1830.45 668.933 1824.71C675.086 1818.97 683.494 1816.1 694.158 1816.1C696.384 1816.1 698.464 1816.24 700.398 1816.54C702.332 1816.83 704.324 1817.18 706.375 1817.59L705.232 1834.99C704.177 1834.82 702.976 1834.61 701.629 1834.38C700.281 1834.09 698.787 1833.94 697.146 1833.94C692.459 1833.94 688.855 1835.43 686.336 1838.42C683.816 1841.35 682.556 1846.21 682.556 1853.01V1869.71L682.82 1870.59V1946H659.793ZM646.345 1882.98V1865.67H664.627H666.297H699.431V1882.98H646.345Z" fill="black" fill-opacity="0.8"/>
<line x1="252.999" y1="787.134" x2="356.999" y2="773.134" stroke="white" stroke-width="30"/>
<line x1="252.999" y1="787.134" x2="356.999" y2="773.134" stroke="white" stroke-width="30"/>
<line x1="304.999" y1="863.134" x2="408.999" y2="849.134" stroke="white" stroke-width="30"/>
<line x1="304.999" y1="863.134" x2="408.999" y2="849.134" stroke="white" stroke-width="30"/>
<line x1="356.999" y1="943.134" x2="460.999" y2="929.134" stroke="white" stroke-width="30"/>
<line x1="356.999" y1="943.134" x2="460.999" y2="929.134" stroke="white" stroke-width="30"/>
<line x1="442.999" y1="1083.13" x2="546.999" y2="1069.13" stroke="white" stroke-width="30"/>
<line x1="442.999" y1="1083.13" x2="546.999" y2="1069.13" stroke="white" stroke-width="30"/>
<line x1="494.999" y1="1185.13" x2="598.999" y2="1171.13" stroke="white" stroke-width="30"/>
<line x1="494.999" y1="1185.13" x2="598.999" y2="1171.13" stroke="white" stroke-width="30"/>
<line x1="316.596" y1="1052.47" x2="397.249" y2="1119.61" stroke="white" stroke-width="30"/>
<line x1="316.596" y1="1052.47" x2="397.249" y2="1119.61" stroke="white" stroke-width="30"/>
<line x1="740.999" y1="811.134" x2="844.999" y2="797.134" stroke="white" stroke-width="30"/>
<line x1="740.999" y1="811.134" x2="844.999" y2="797.134" stroke="white" stroke-width="30"/>
<line x1="750.999" y1="897.134" x2="854.999" y2="883.134" stroke="white" stroke-width="30"/>
<line x1="750.999" y1="897.134" x2="854.999" y2="883.134" stroke="white" stroke-width="30"/>
<line x1="750.999" y1="995.134" x2="854.999" y2="981.134" stroke="white" stroke-width="30"/>
<line x1="750.999" y1="995.134" x2="854.999" y2="981.134" stroke="white" stroke-width="30"/>
<line x1="724.855" y1="1076.27" x2="827.875" y2="1096.25" stroke="white" stroke-width="30"/>
<line x1="724.855" y1="1076.27" x2="827.875" y2="1096.25" stroke="white" stroke-width="30"/>
<line x1="702.185" y1="1156.78" x2="796.794" y2="1202.18" stroke="white" stroke-width="30"/>
<line x1="702.185" y1="1156.78" x2="796.794" y2="1202.18" stroke="white" stroke-width="30"/>
<line x1="598.999" y1="1374.13" x2="702.999" y2="1360.13" stroke="white" stroke-width="30"/>
<line x1="598.999" y1="1374.13" x2="702.999" y2="1360.13" stroke="white" stroke-width="30"/>
<line x1="245.324" y1="1142.98" x2="343.43" y2="1180.22" stroke="white" stroke-width="30"/>
<line x1="245.324" y1="1142.98" x2="343.43" y2="1180.22" stroke="white" stroke-width="30"/>
<line x1="641.999" y1="1447.13" x2="745.999" y2="1433.13" stroke="white" stroke-width="30"/>
<line x1="641.999" y1="1447.13" x2="745.999" y2="1433.13" stroke="white" stroke-width="30"/>
<line x1="688.999" y1="1542.13" x2="792.999" y2="1528.13" stroke="white" stroke-width="30"/>
<line x1="688.999" y1="1542.13" x2="792.999" y2="1528.13" stroke="white" stroke-width="30"/>
<line x1="217.364" y1="1267.34" x2="322.166" y2="1272.7" stroke="white" stroke-width="30"/>
<line x1="217.364" y1="1267.34" x2="322.166" y2="1272.7" stroke="white" stroke-width="30"/>
<line x1="203.62" y1="1370.01" x2="308.469" y2="1374.35" stroke="white" stroke-width="30"/>
<line x1="203.62" y1="1370.01" x2="308.469" y2="1374.35" stroke="white" stroke-width="30"/>
<line x1="203.62" y1="1472.01" x2="308.469" y2="1476.35" stroke="white" stroke-width="30"/>
<line x1="203.62" y1="1472.01" x2="308.469" y2="1476.35" stroke="white" stroke-width="30"/>
<line x1="217.62" y1="1542.01" x2="322.469" y2="1546.35" stroke="white" stroke-width="30"/>
<line x1="217.62" y1="1542.01" x2="322.469" y2="1546.35" stroke="white" stroke-width="30"/>
<defs>
<filter id="filter0_d_9_27" x="233" y="723" width="600.5" height="887" filterUnits="userSpaceOnUse" color-interpolation-filters="sRGB">
<feFlood flood-opacity="0" result="BackgroundImageFix"/>
<feColorMatrix in="SourceAlpha" type="matrix" values="0 0 0 0 0 0 0 0 0 0 0 0 0 0 0 0 0 0 127 0" result="hardAlpha"/>
<feOffset dy="4"/>
<feGaussianBlur stdDeviation="2"/>
<feComposite in2="hardAlpha" operator="out"/>
<feColorMatrix type="matrix" values="0 0 0 0 0 0 0 0 0 0 0 0 0 0 0 0 0 0 0.25 0"/>
<feBlend mode="normal" in2="BackgroundImageFix" result="effect1_dropShadow_9_27"/>
<feBlend mode="normal" in="SourceGraphic" in2="effect1_dropShadow_9_27" result="shape"/>
</filter>
</defs>
</svg>
